<?xml version="1.0" encoding="UTF-8"?>
<svg version="1.1" xmlns="http://www.w3.org/2000/svg" width="78" height="78">
<path d="M0 0 C6.94106668 6.01478915 12.23944751 12.86512168 14.25390625 21.953125 C15.22064532 35.76368308 14.23799419 46.37764095 5.00390625 57.390625 C0.89572021 61.65629151 -3.33566461 64.58359399 -8.74609375 66.953125 C-9.53113281 67.30890625 -10.31617188 67.6646875 -11.125 68.03125 C-20.77188364 71.42419268 -31.77118312 70.45854265 -40.93359375 66.140625 C-42.21619437 65.43236161 -43.48764132 64.70345751 -44.74609375 63.953125 C-45.34164062 63.61667969 -45.9371875 63.28023438 -46.55078125 62.93359375 C-53.90948224 58.30578846 -58.91307284 50.51076438 -61.25 42.22265625 C-63.91184246 30.04525099 -62.52944466 18.5902057 -55.74609375 7.953125 C-53.37109375 5.203125 -53.37109375 5.203125 -50.74609375 2.953125 C-50.24464844 2.46199219 -49.74320313 1.97085937 -49.2265625 1.46484375 C-35.68077284 -11.31959005 -14.43859707 -11.03173709 0 0 Z " fill="#F36659" transform="translate(62.74609375,8.046875)"/>
<path d="M0 0 C6.94106668 6.01478915 12.23944751 12.86512168 14.25390625 21.953125 C15.22064532 35.76368308 14.23799419 46.37764095 5.00390625 57.390625 C0.89572021 61.65629151 -3.33566461 64.58359399 -8.74609375 66.953125 C-9.53113281 67.30890625 -10.31617188 67.6646875 -11.125 68.03125 C-20.65395426 71.38271528 -31.28006006 70.40341597 -40.37109375 66.328125 C-41.15484375 65.874375 -41.93859375 65.420625 -42.74609375 64.953125 C-39.18564198 63.76630774 -36.30801038 63.85622668 -32.55859375 63.890625 C-30.65013672 63.90416016 -30.65013672 63.90416016 -28.703125 63.91796875 C-27.72730469 63.92957031 -26.75148437 63.94117187 -25.74609375 63.953125 C-25.41609375 61.643125 -25.08609375 59.333125 -24.74609375 56.953125 C-24.41609375 56.953125 -24.08609375 56.953125 -23.74609375 56.953125 C-23.74609375 58.603125 -23.74609375 60.253125 -23.74609375 61.953125 C-16.0985797 59.77301279 -8.44423273 55.15867495 -4.08203125 48.359375 C-3.14910278 46.23847287 -2.3583892 44.18589204 -1.74609375 41.953125 C-1.08609375 41.953125 -0.42609375 41.953125 0.25390625 41.953125 C0.60736027 38.62163287 0.93161525 35.28776252 1.25390625 31.953125 C1.36089844 30.9528125 1.46789062 29.9525 1.578125 28.921875 C2.38526759 20.45211899 2.01383035 12.40581925 1.25390625 3.953125 C-0.72609375 3.953125 -2.70609375 3.953125 -4.74609375 3.953125 C-5.07609375 4.943125 -5.40609375 5.933125 -5.74609375 6.953125 C-5.74609375 6.293125 -5.74609375 5.633125 -5.74609375 4.953125 C-6.71546875 4.80875 -7.68484375 4.664375 -8.68359375 4.515625 C-11.74609375 3.953125 -11.74609375 3.953125 -12.74609375 2.953125 C-21.16196699 2.86811618 -29.50476406 5.16299781 -36.18359375 10.390625 C-38.58886057 12.79589182 -40.0471843 15.0407088 -41.74609375 17.953125 C-42.73609375 18.283125 -43.72609375 18.613125 -44.74609375 18.953125 C-45.95491471 20.95328966 -45.95491471 20.95328966 -46.74609375 22.953125 C-47.73609375 22.953125 -48.72609375 22.953125 -49.74609375 22.953125 C-50.8310065 26.65360261 -50.74949327 29.91371231 -50.5859375 33.734375 C-50.74609375 35.953125 -50.74609375 35.953125 -51.7421875 37.71875 C-53.26980674 41.11874301 -52.95501235 44.54943823 -52.87109375 48.203125 C-52.85755859 49.32074219 -52.85755859 49.32074219 -52.84375 50.4609375 C-52.82027733 52.29180559 -52.784409 54.12250738 -52.74609375 55.953125 C-59.58169842 49.64942997 -62.19378703 41.75638856 -62.77734375 32.55078125 C-62.654494 22.33889567 -60.12172907 13.01965011 -53.37109375 5.203125 C-52.50484375 4.460625 -51.63859375 3.718125 -50.74609375 2.953125 C-50.24464844 2.46199219 -49.74320313 1.97085937 -49.2265625 1.46484375 C-35.68077284 -11.31959005 -14.43859707 -11.03173709 0 0 Z " fill="#CB4F6C" transform="translate(62.74609375,8.046875)"/>
<path d="M0 0 C-0.33 0.66 -0.66 1.32 -1 2 C-2.87054688 2.3078916 -4.74385945 2.60451951 -6.62548828 2.83520508 C-15.8597684 3.9926592 -21.25606643 6.37015554 -28 13 C-29.28740853 14.00547604 -30.57871212 15.00599774 -31.875 16 C-36.98271158 20.43310816 -39.45422346 26.31423733 -40 33 C-39.97997328 35.28705144 -39.94006457 37.56652788 -39.83984375 39.8515625 C-40 42 -40 42 -40.99609375 43.7578125 C-42.52051447 47.16254983 -42.20899409 50.5930265 -42.125 54.25 C-42.11146484 55.36761719 -42.11146484 55.36761719 -42.09765625 56.5078125 C-42.07418358 58.33868059 -42.03831525 60.16938238 -42 62 C-48.83560467 55.69630497 -51.44769328 47.80326356 -52.03125 38.59765625 C-51.90840025 28.38577067 -49.37563532 19.06652511 -42.625 11.25 C-41.75875 10.5075 -40.8925 9.765 -40 9 C-39.49855469 8.50886719 -38.99710938 8.01773437 -38.48046875 7.51171875 C-27.73826609 -2.62670671 -13.69675997 -3.55101185 0 0 Z " fill="#A5679C" transform="translate(52,2)"/>
<path d="M0 0 C0.66 0 1.32 0 2 0 C5.10757318 9.32271954 3.96324677 21.60862417 -0.32421875 30.31640625 C-5.33982847 38.34839664 -11.30398348 44.19152561 -20 48 C-20.78503906 48.35578125 -21.57007813 48.7115625 -22.37890625 49.078125 C-31.90786051 52.42959028 -42.53396631 51.45029097 -51.625 47.375 C-52.40875 46.92125 -53.1925 46.4675 -54 46 C-51.10445062 45.03481687 -49.78621731 44.94835578 -46.83984375 45.19140625 C-46.04642578 45.24876953 -45.25300781 45.30613281 -44.43554688 45.36523438 C-42.76598986 45.49707586 -41.09671287 45.63251107 -39.42773438 45.77148438 C-38.63560547 45.82755859 -37.84347656 45.88363281 -37.02734375 45.94140625 C-35.94054321 46.02950562 -35.94054321 46.02950562 -34.83178711 46.11938477 C-32.74592966 46.18567794 -32.74592966 46.18567794 -31 44 C-28.9765625 43.5078125 -28.9765625 43.5078125 -26.625 43.125 C-22.54343317 42.28391035 -20.65908782 41.32385978 -18 38 C-17.175 37.236875 -16.35 36.47375 -15.5 35.6875 C-13.45566045 33.48983498 -12.22633399 31.82012944 -10.8125 29.25 C-9 26 -9 26 -7 25 C-6.27359045 22.68456957 -5.61568542 20.34730065 -5 18 C-4 14.625 -4 14.625 -3 12 C-2.34 11.67 -1.68 11.34 -1 11 C-0.5316735 8.41394668 -0.5316735 8.41394668 -0.375 5.4375 C-0.30023438 4.42558594 -0.22546875 3.41367187 -0.1484375 2.37109375 C-0.09945312 1.58863281 -0.05046875 0.80617188 0 0 Z " fill="#A86496" transform="translate(74,27)"/>
<path d="M0 0 C1.54698226 3.09396452 0.08638597 5.179681 -0.9375 8.4375 C-3.17820243 16.35937581 -3.38859366 24.11334685 -3.375 32.3125 C-3.3762085 33.51124756 -3.37741699 34.70999512 -3.37866211 35.94506836 C-3.52022325 42.34049063 -3.52022325 42.34049063 -1 48 C-1.33 48.99 -1.66 49.98 -2 51 C-8.80628099 42.35418361 -11.58869357 33.08115718 -10.78515625 22.05078125 C-9.783107 14.59744349 -7.89444578 6.19850691 -1.8359375 1.22265625 C-1.23007813 0.81917969 -0.62421875 0.41570313 0 0 Z " fill="#6A8AD7" transform="translate(11,13)"/>
<path d="M0 0 C0 0.33 0 0.66 0 1 C-1.2065625 1.37125 -1.2065625 1.37125 -2.4375 1.75 C-13.14607694 5.50739542 -22.38738006 10.47276434 -29 20 C-30.42040841 23.06862759 -31.41954981 26.19784512 -32.375 29.4375 C-32.63410156 30.26443359 -32.89320312 31.09136719 -33.16015625 31.94335938 C-33.78884585 33.95749457 -34.39664834 35.97813008 -35 38 C-35.33 38 -35.66 38 -36 38 C-36.24574901 32.37756059 -35.36292565 27.61164448 -33.9375 22.1875 C-32.18553927 17.02994108 -32.18553927 17.02994108 -33 12 C-22.21400981 3.65275392 -13.73516776 -0.23681324 0 0 Z " fill="#8E75B9" transform="translate(43,0)"/>
<path d="M0 0 C0.33 0 0.66 0 1 0 C1.93094789 11.66788017 -0.64027188 20.44176185 -8.25 29.4375 C-12.37773619 33.72346608 -16.5965243 36.56896673 -22 39 C-22.845625 39.433125 -23.69125 39.86625 -24.5625 40.3125 C-28.10234676 41.31091832 -31.32868855 41.12445124 -35 41 C-32.32180119 39.21453413 -30.30469118 38.35060715 -27.3125 37.3125 C-14.93925148 32.43164069 -7.32961629 20.71853519 -2 9 C-1.08361653 5.98029829 -0.51203003 3.12338321 0 0 Z " fill="#847BC4" transform="translate(76,36)"/>
<path d="M0 0 C0.33 0 0.66 0 1 0 C2.86157651 10.2386708 1.18715577 20.899317 -1 31 C-1.66 31 -2.32 31 -3 31 C-3.1546875 31.804375 -3.1546875 31.804375 -3.3125 32.625 C-5.38664725 39.79023596 -8.98917242 42.97374495 -15 47 C-15.66 46.67 -16.32 46.34 -17 46 C-15.625 44 -15.625 44 -14 42 C-13.34 42 -12.68 42 -12 42 C-11.731875 41.113125 -11.46375 40.22625 -11.1875 39.3125 C-10 36 -10 36 -8.4375 33.4375 C-6.93816182 30.89514395 -6.5427427 28.86878282 -6 26 C-5.34 25.34 -4.68 24.68 -4 24 C-3.3574765 21.93125966 -3.3574765 21.93125966 -3 20 C-2.34 20 -1.68 20 -1 20 C-0.67 13.4 -0.34 6.8 0 0 Z " fill="#E53F4C" transform="translate(64,19)"/>
<path d="M0 0 C0.68835937 0.54785156 1.37671875 1.09570312 2.0859375 1.66015625 C2.84777344 2.29244141 2.84777344 2.29244141 3.625 2.9375 C1.625 4.9375 1.625 4.9375 -1 5.0625 C-1.78375 5.02125 -2.5675 4.98 -3.375 4.9375 C-3.375 3.9475 -3.375 2.9575 -3.375 1.9375 C-6.95826501 1.87935915 -10.54140838 1.84385643 -14.125 1.8125 C-15.14078125 1.79574219 -16.1565625 1.77898438 -17.203125 1.76171875 C-18.1828125 1.75527344 -19.1625 1.74882812 -20.171875 1.7421875 C-21.07260742 1.73171387 -21.97333984 1.72124023 -22.90136719 1.71044922 C-25.40221329 1.78799017 -25.40221329 1.78799017 -27.51269531 3.01220703 C-29.375 3.9375 -29.375 3.9375 -32.375 2.9375 C-28.14161447 -1.11146081 -24.52322368 -2.0160312 -18.9375 -2.875 C-18.19951172 -3.00841797 -17.46152344 -3.14183594 -16.70117188 -3.27929688 C-10.21302003 -4.35777189 -5.31082547 -4.30359995 0 0 Z " fill="#BD5477" transform="translate(61.375,7.0625)"/>
<path d="M0 0 C0.99 0 1.98 0 3 0 C3.33 9.9 3.66 19.8 4 30 C1.39838167 28.69919084 1.34881203 27.77735101 0.4375 25.0625 C-2.09587484 16.94798467 -2.32687718 9.35932622 -1 1 C-0.67 0.67 -0.34 0.34 0 0 Z " fill="#45C0E9" transform="translate(2,28)"/>
<path d="M0 0 C0 0.66 0 1.32 0 2 C-1.98 2 -3.96 2 -6 2 C-6.33 1.01 -6.66 0.02 -7 -1 C-7.61875 -0.71125 -8.2375 -0.4225 -8.875 -0.125 C-12 1 -12 1 -14.1015625 1.2265625 C-22.90646847 2.23037914 -28.46813427 7.45098554 -35 13 C-35 10 -35 10 -33 7 C-32.34 7 -31.68 7 -31 7 C-30.731875 6.38125 -30.46375 5.7625 -30.1875 5.125 C-27.88188336 0.99915969 -23.95654167 0.20445934 -19.6875 -1.125 C-18.57761719 -1.47820313 -17.46773437 -1.83140625 -16.32421875 -2.1953125 C-9.78235078 -3.77889041 -5.8714017 -2.81827282 0 0 Z " fill="#DC4558" transform="translate(57,13)"/>
<path d="M0 0 C3.3502463 3.81234923 5.16974789 7.33285711 7 12 C6.34 12 5.68 12 5 12 C5 15.63 5 19.26 5 23 C4.01 23.33 3.02 23.66 2 24 C1.87625 24.969375 1.7525 25.93875 1.625 26.9375 C1.41875 27.948125 1.2125 28.95875 1 30 C0.34 30.33 -0.32 30.66 -1 31 C-0.1127584 23.39507204 -0.1127584 23.39507204 0.52734375 21.15234375 C1.1789327 18.18519078 1.13179542 15.34665651 1.125 12.3125 C1.12757812 11.15363281 1.13015625 9.99476562 1.1328125 8.80078125 C1.31928173 6.09500844 1.31928173 6.09500844 0 5 C-0.04063832 3.33382885 -0.042721 1.66611905 0 0 Z " fill="#BD577E" transform="translate(69,15)"/>
<path d="M0 0 C1.08885498 0.05329468 1.08885498 0.05329468 2.19970703 0.10766602 C5.50786091 0.2658637 8.81638508 0.41427112 12.125 0.5625 C13.83816406 0.64661133 13.83816406 0.64661133 15.5859375 0.73242188 C16.69453125 0.78076172 17.803125 0.82910156 18.9453125 0.87890625 C19.96125488 0.9260376 20.97719727 0.97316895 22.02392578 1.02172852 C25.11798001 0.99913862 27.9664525 0.5873296 31 0 C29.694761 2.61047801 28.64173426 2.68066423 25.9375 3.625 C25.20402344 3.88539062 24.47054687 4.14578125 23.71484375 4.4140625 C23.14894531 4.60742188 22.58304688 4.80078125 22 5 C22 5.33 22 5.66 22 6 C13.85082664 5.74809356 7.19010111 4.99450062 0 1 C0 0.67 0 0.34 0 0 Z " fill="#9BAABE" transform="translate(20,72)"/>
<path d="M0 0 C0.33 0.99 0.66 1.98 1 3 C-4.55820272 11.44846814 -10.74677453 18.74406911 -20.8515625 20.8359375 C-23.14115352 21.010779 -24.81973719 20.68071554 -27 20 C-24.68672916 17.68672916 -23.76664438 17.63643048 -20.625 17.125 C-16.49869734 16.27739961 -14.78065508 15.2440976 -12 12 C-10.80649773 11.14556087 -9.59669027 10.31362569 -8.375 9.5 C-5.68014768 7.63610857 -4.06894994 6.20684981 -3 3 C-2.34 3 -1.68 3 -1 3 C-0.67 2.01 -0.34 1.02 0 0 Z " fill="#9670AF" transform="translate(68,53)"/>
<path d="M0 0 C0 4.31618166 -2.13270348 5.92789659 -5 9 C-5.66 9 -6.32 9 -7 9 C-7 9.99 -7 10.98 -7 12 C-10.39556181 15.29770701 -14.56919173 17.43618532 -19 19 C-19.33 19.33 -19.66 19.66 -20 20 C-21.99958364 20.04080783 -24.00045254 20.04254356 -26 20 C-26 19.34 -26 18.68 -26 18 C-25.34 18 -24.68 18 -24 18 C-23.67 15.69 -23.34 13.38 -23 11 C-22.67 11 -22.34 11 -22 11 C-22 12.65 -22 14.3 -22 16 C-17.20367812 14.66132509 -13.82889905 12.69590145 -9.875 9.6875 C-8.86179687 8.92824219 -7.84859375 8.16898438 -6.8046875 7.38671875 C-4.13126265 5.11170123 -2.08230028 2.81459248 0 0 Z " fill="#D45A69" transform="translate(61,54)"/>
<path d="M0 0 C0.82020418 2.88711871 1.16181621 5.50013311 1.1875 8.5 C1.20167969 9.2528125 1.21585938 10.005625 1.23046875 10.78125 C1 13 1 13 -0.00390625 14.859375 C-1.40633713 17.87322646 -1.19104297 20.44785147 -1.125 23.75 C-1.10695313 24.92046875 -1.08890625 26.0909375 -1.0703125 27.296875 C-1.04710937 28.18890625 -1.02390625 29.0809375 -1 30 C-3.00969432 28.34979556 -3.91976928 27.47918624 -4.35644531 24.87109375 C-4.34709961 24.06800781 -4.33775391 23.26492187 -4.328125 22.4375 C-4.32296875 21.55835937 -4.3178125 20.67921875 -4.3125 19.7734375 C-4.291875 18.85820313 -4.27125 17.94296875 -4.25 17 C-4.24226562 15.62714844 -4.24226562 15.62714844 -4.234375 14.2265625 C-4.15506269 7.46518807 -4.15506269 7.46518807 -3 4 C-2.34 3.67 -1.68 3.34 -1 3 C-0.67 2.01 -0.34 1.02 0 0 Z " fill="#D39F90" transform="translate(11,31)"/>
<path d="M0 0 C0.33 0 0.66 0 1 0 C1 1.98 1 3.96 1 6 C0.01 6.33 -0.98 6.66 -2 7 C-3.08431094 8.74867483 -3.08431094 8.74867483 -4 11 C-5.99425231 15.55829099 -7.82705243 18.21803496 -12 21 C-12.66 21 -13.32 21 -14 21 C-14.33 21.99 -14.66 22.98 -15 24 C-16.65 24.33 -18.3 24.66 -20 25 C-18.37660195 23.29115995 -16.70680947 21.62553283 -15 20 C-14.34 20 -13.68 20 -13 20 C-13 19.01 -13 18.02 -13 17 C-11.33333333 15.33333333 -9.66666667 13.66666667 -8 12 C-6.62381337 9.89662384 -5.35368126 7.76007023 -4.11328125 5.57421875 C-3.56220703 4.79498047 -3.56220703 4.79498047 -3 4 C-2.34 4 -1.68 4 -1 4 C-0.67 2.68 -0.34 1.36 0 0 Z " fill="#BC587C" transform="translate(67,46)"/>
<path d="M0 0 C0.54140625 0.24621094 1.0828125 0.49242187 1.640625 0.74609375 C-1.97265625 5.43359375 -1.97265625 5.43359375 -3.359375 6.74609375 C-4.349375 6.74609375 -5.339375 6.74609375 -6.359375 6.74609375 C-6.359375 7.73609375 -6.359375 8.72609375 -6.359375 9.74609375 C-7.349375 10.40609375 -8.339375 11.06609375 -9.359375 11.74609375 C-10.349375 11.41609375 -11.339375 11.08609375 -12.359375 10.74609375 C-12.689375 9.75609375 -13.019375 8.76609375 -13.359375 7.74609375 C-11.62132159 6.37662753 -9.86846267 5.02593421 -8.109375 3.68359375 C-7.13484375 2.92949219 -6.1603125 2.17539063 -5.15625 1.3984375 C-2.359375 -0.25390625 -2.359375 -0.25390625 0 0 Z " fill="#7784D8" transform="translate(23.359375,4.25390625)"/>
<path d="M0 0 C0 1.98 0 3.96 0 6 C-0.33 5.34 -0.66 4.68 -1 4 C-2.99285937 3.62633887 -4.99363529 3.29259485 -7 3 C-7.33 2.67 -7.66 2.34 -8 2 C-10.23538768 2.02645398 -10.23538768 2.02645398 -12.8125 2.3125 C-13.68519531 2.39113281 -14.55789062 2.46976563 -15.45703125 2.55078125 C-18.01258425 2.87198068 -18.01258425 2.87198068 -20.13671875 4.10546875 C-22 5 -22 5 -25 4 C-16.5191203 -1.33083867 -9.78714721 -2.00761994 0 0 Z " fill="#D04D65" transform="translate(58,9)"/>
<path d="M0 0 C0.66 0 1.32 0 2 0 C2.01981934 0.80219971 2.03963867 1.60439941 2.06005859 2.4309082 C2.15519495 6.05844177 2.2649208 9.68539045 2.375 13.3125 C2.42140625 15.20645508 2.42140625 15.20645508 2.46875 17.13867188 C2.50742188 18.34716797 2.54609375 19.55566406 2.5859375 20.80078125 C2.6173584 21.91622314 2.6487793 23.03166504 2.68115234 24.1809082 C2.805249 27.20368786 2.805249 27.20368786 5 30 C4.67 30.99 4.34 31.98 4 33 C-1.41860827 27.17606277 -0.45520985 20.70197915 -0.25 13.125 C-0.23195313 11.86429688 -0.21390625 10.60359375 -0.1953125 9.3046875 C-0.14830729 6.20234386 -0.08260676 3.1015662 0 0 Z " fill="#78B4CA" transform="translate(5,31)"/>
<path d="M0 0 C0 0.99 0 1.98 0 3 C-0.66 3 -1.32 3 -2 3 C-1.9484375 4.00160156 -1.896875 5.00320312 -1.84375 6.03515625 C-2.01319819 10.33490404 -2.97312193 13.42944507 -4.5 17.4375 C-4.85771484 18.39172852 -4.85771484 18.39172852 -5.22265625 19.36523438 C-5.80490924 20.91402732 -6.40101069 22.45760253 -7 24 C-7.33 24 -7.66 24 -8 24 C-8.18865586 18.80522603 -7.58282736 14.18560259 -6.25 9.1875 C-6.09273437 8.52041016 -5.93546875 7.85332031 -5.7734375 7.16601562 C-4.50837255 2.34417193 -4.50837255 2.34417193 -1.859375 0.55078125 C-0.93898438 0.27814453 -0.93898438 0.27814453 0 0 Z " fill="#8688BF" transform="translate(15,14)"/>
<path d="M0 0 C0.33 0.99 0.66 1.98 1 3 C-1.88361877 8.45329518 -6.80029429 13.67621717 -12 17 C-12.99 17 -13.98 17 -15 17 C-13.51697598 12.55092795 -9.91714499 10.25420608 -6 8 C-5.34 8 -4.68 8 -4 8 C-4 6.68 -4 5.36 -4 4 C-3.34 4 -2.68 4 -2 4 C-1.34 2.68 -0.68 1.36 0 0 Z " fill="#7880D5" transform="translate(72,55)"/>
<path d="M0 0 C-0.0625 1.75 -0.0625 1.75 -1 4 C-2.74536811 5.03429221 -4.4954018 6.06364095 -6.2890625 7.01171875 C-9.83602025 9.06053224 -10.92226813 11.81862563 -12.5 15.5 C-13.76347432 18.44810674 -14.95843937 20.56957068 -17 23 C-16.70881845 14.8469165 -13.641925 10.56084318 -7.89453125 4.94140625 C-2.4361167 0 -2.4361167 0 0 0 Z " fill="#B95D80" transform="translate(29,11)"/>
<path d="M0 0 C0.66 0 1.32 0 2 0 C3.53120468 8.49122598 2.67013551 16.33165194 -2.1875 23.6875 C-2.785625 24.450625 -3.38375 25.21375 -4 26 C-4 23 -4 23 -2.54296875 19.83984375 C-0.7179501 15.76171566 -0.45412569 11.98526813 -0.3125 7.5625 C-0.27833984 6.83095703 -0.24417969 6.09941406 -0.20898438 5.34570312 C-0.12748247 3.56430438 -0.06204477 1.78218251 0 0 Z " fill="#A56B9E" transform="translate(74,27)"/>
<path d="M0 0 C-5.22031776 2.12679612 -10.14210441 3.54286778 -15.703125 4.47265625 C-18.0412055 4.90475599 -18.0412055 4.90475599 -20.109375 6.12109375 C-22 7 -22 7 -25 6 C-20.73117795 1.89274691 -17.02091411 1.04016792 -11.375 0.1875 C-10.611875 0.05408203 -9.84875 -0.07933594 -9.0625 -0.21679688 C-5.62694733 -0.78034806 -3.34766505 -1.11588835 0 0 Z " fill="#B65C86" transform="translate(54,4)"/>
<path d="M0 0 C0.66 0.33 1.32 0.66 2 1 C1.52949219 1.47308594 1.05898438 1.94617188 0.57421875 2.43359375 C-3.447899 6.70553248 -5.80196796 10.2273945 -7.37890625 15.87890625 C-8.22743267 18.77670402 -9.57253755 21.34899831 -11 24 C-12.84361878 19.1605007 -10.56798552 15.55556672 -8.61328125 11.0625 C-6.34693717 6.76028751 -3.45821145 3.38844926 0 0 Z " fill="#A277A1" transform="translate(21,11)"/>
<path d="M0 0 C0.33 0 0.66 0 1 0 C1.05406122 1.93719378 1.09282025 3.87481921 1.125 5.8125 C1.14820312 6.89144531 1.17140625 7.97039063 1.1953125 9.08203125 C0.9678654 12.48009093 -0.00448124 14.08443223 -2.5078125 16.38671875 C-4.00520833 17.59114583 -5.50260417 18.79557292 -7 20 C-6.5330936 17.08183498 -5.63034684 15.39186093 -4.0625 12.8125 C-1.64224754 8.76407771 -0.79424619 4.608718 0 0 Z " fill="#9079B9" transform="translate(76,36)"/>
<path d="M0 0 C0 0.99 0 1.98 0 3 C-4.1725134 7.16324115 -9.12826694 10.90758455 -15 12 C-17.375 11.625 -17.375 11.625 -19 11 C-16.68672916 8.68672916 -15.76664438 8.63643048 -12.625 8.125 C-8.55874153 7.29873628 -6.678389 6.27358656 -4 3 C-2.68441297 1.97676564 -1.35622245 0.96873032 0 0 Z " fill="#A36C9E" transform="translate(60,62)"/>
<path d="M0 0 C2.39614575 0.14165893 4.79182897 0.28818841 7.1875 0.4375 C7.86103516 0.47681641 8.53457031 0.51613281 9.22851562 0.55664062 C12.89699102 0.78927565 16.41694206 1.17207011 20 2 C20 2.33 20 2.66 20 3 C16.7 3 13.4 3 10 3 C9.67 3.66 9.34 4.32 9 5 C4.545 3.02 4.545 3.02 0 1 C0 0.67 0 0.34 0 0 Z " fill="#D0AFA1" transform="translate(20,72)"/>
<path d="M0 0 C0.66 0.33 1.32 0.66 2 1 C1.7159949 3.06356895 1.42246648 5.1258285 1.125 7.1875 C0.96257812 8.33605469 0.80015625 9.48460937 0.6328125 10.66796875 C-0.16685162 14.87854585 -0.81295781 17.98752284 -4.125 20.8125 C-4.74375 21.204375 -5.3625 21.59625 -6 22 C-5.34 20.02 -4.68 18.04 -4 16 C-3.34 16 -2.68 16 -2 16 C-1.93941406 15.34773438 -1.87882812 14.69546875 -1.81640625 14.0234375 C-1.36480009 9.31283783 -0.85804961 4.65798362 0 0 Z " fill="#D8465D" transform="translate(65,34)"/>
<path d="M0 0 C0 0.33 0 0.66 0 1 C-1.2065625 1.37125 -1.2065625 1.37125 -2.4375 1.75 C-6.11041357 3.0387416 -9.54329185 4.6067204 -13.046875 6.29296875 C-13.69140625 6.52628906 -14.3359375 6.75960938 -15 7 C-15.66 6.67 -16.32 6.34 -17 6 C-16.505 5.360625 -16.01 4.72125 -15.5 4.0625 C-13.90197138 2.29025661 -13.90197138 2.29025661 -14 1 C-9.23692563 0.04738513 -4.8333472 -0.08333357 0 0 Z " fill="#A085C0" transform="translate(43,0)"/>
<path d="M0 0 C0.66 0.33 1.32 0.66 2 1 C1.57847656 1.48210938 1.15695313 1.96421875 0.72265625 2.4609375 C0.17480469 3.09257812 -0.37304688 3.72421875 -0.9375 4.375 C-1.48277344 5.00148438 -2.02804688 5.62796875 -2.58984375 6.2734375 C-4.06958624 7.95632334 -4.06958624 7.95632334 -5 10 C-5.99 10.33 -6.98 10.66 -8 11 C-9.20882096 13.00016466 -9.20882096 13.00016466 -10 15 C-10.66 14.67 -11.32 14.34 -12 14 C-10.625 11.5 -10.625 11.5 -9 9 C-8.34 9 -7.68 9 -7 9 C-6.95875 8.443125 -6.9175 7.88625 -6.875 7.3125 C-5.53069626 3.75969726 -2.99025811 2.29041047 0 0 Z " fill="#D65564" transform="translate(26,16)"/>
<path d="M0 0 C0.99 0.33 1.98 0.66 3 1 C0.12505529 4.98069267 -2.82117329 7.43571997 -7 10 C-7.66 9.67 -8.32 9.34 -9 9 C-7.625 7 -7.625 7 -6 5 C-5.34 5 -4.68 5 -4 5 C-4 4.34 -4 3.68 -4 3 C-2.1875 1.3125 -2.1875 1.3125 0 0 Z " fill="#E54A4F" transform="translate(56,56)"/>
<path d="M0 0 C0.33 0 0.66 0 1 0 C0.67 6.93 0.34 13.86 0 21 C0.66 21 1.32 21 2 21 C2 22.65 2 24.3 2 26 C-0.00969432 24.34979556 -0.91976928 23.47918624 -1.35644531 20.87109375 C-1.34709961 20.06800781 -1.33775391 19.26492187 -1.328125 18.4375 C-1.32296875 17.55835937 -1.3178125 16.67921875 -1.3125 15.7734375 C-1.291875 14.85820313 -1.27125 13.94296875 -1.25 13 C-1.24226562 11.62714844 -1.24226562 11.62714844 -1.234375 10.2265625 C-1.15506269 3.46518807 -1.15506269 3.46518807 0 0 Z " fill="#B2ADA7" transform="translate(8,35)"/>
<path d="M0 0 C1.32 0.33 2.64 0.66 4 1 C3.8125 3.8125 3.8125 3.8125 3 7 C0.4375 8.875 0.4375 8.875 -2 10 C-2.17942163 6.05272412 -2.09350689 3.4019487 0 0 Z " fill="#E0897A" transform="translate(13,31)"/>
<path d="M0 0 C0 0.66 0 1.32 0 2 C-5.36439644 4.68219822 -9.01006953 5.3152595 -15 5 C-10.27097529 1.84731686 -5.79349678 -0.52668153 0 0 Z " fill="#788DC6" transform="translate(56,72)"/>
<path d="M0 0 C2.34290892 2.48434437 2.97982934 3.77731593 3.29296875 7.234375 C3.25816406 8.39453125 3.22335938 9.5546875 3.1875 10.75 C3.16042969 11.92046875 3.13335937 13.0909375 3.10546875 14.296875 C3.07066406 15.18890625 3.03585938 16.0809375 3 17 C2.67 17 2.34 17 2 17 C-0.29612756 5.47835991 -0.29612756 5.47835991 0 0 Z M1 17 C2 21 2 21 2 21 Z " fill="#C55374" transform="translate(68,17)"/>
<path d="M0 0 C0.33 0 0.66 0 1 0 C1 1.65 1 3.3 1 5 C2.32 5 3.64 5 5 5 C4.34 6.32 3.68 7.64 3 9 C1.02 9 -0.96 9 -3 9 C-3 8.34 -3 7.68 -3 7 C-2.34 7 -1.68 7 -1 7 C-0.67 4.69 -0.34 2.38 0 0 Z " fill="#E18C7B" transform="translate(38,65)"/>
<path d="M0 0 C1.98 0.99 1.98 0.99 4 2 C3.01 2.495 3.01 2.495 2 3 C2 6.63 2 10.26 2 14 C1.01 14.495 1.01 14.495 0 15 C0 10.05 0 5.1 0 0 Z " fill="#B55A8D" transform="translate(72,24)"/>
<path d="M0 0 C-3.61328125 4.6875 -3.61328125 4.6875 -5 6 C-5.99 6 -6.98 6 -8 6 C-8.33 6.99 -8.66 7.98 -9 9 C-8.4454626 5.67277559 -7.75986957 2.8986087 -6 0 C-3.50907189 -1.24546405 -2.58919267 -0.7767578 0 0 Z " fill="#8080CF" transform="translate(25,5)"/>
<path d="M0 0 C4.455 2.97 4.455 2.97 9 6 C8.34 6.66 7.68 7.32 7 8 C6.01 8 5.02 8 4 8 C3.67 6.68 3.34 5.36 3 4 C1.68 4 0.36 4 -1 4 C-0.67 2.68 -0.34 1.36 0 0 Z " fill="#BF5D7F" transform="translate(56,4)"/>
<path d="M0 0 C0.33 0.66 0.66 1.32 1 2 C-1.72759965 5.83884395 -3.64989132 7.35401293 -8 9 C-8.33 9.99 -8.66 10.98 -9 12 C-10.65 12.33 -12.3 12.66 -14 13 C-10.75673917 9.5601779 -7.49651708 6.81809776 -3.55078125 4.2109375 C-1.70826684 2.90301121 -1.70826684 2.90301121 0 0 Z " fill="#B86288" transform="translate(61,58)"/>
<path d="M0 0 C0.33 0 0.66 0 1 0 C1 3.3 1 6.6 1 10 C0.34 10 -0.32 10 -1 10 C-1 9.01 -1 8.02 -1 7 C-1.99 7 -2.98 7 -4 7 C-3.67 5.68 -3.34 4.36 -3 3 C-2.34 3 -1.68 3 -1 3 C-0.67 2.01 -0.34 1.02 0 0 Z " fill="#5C99E4" transform="translate(6,21)"/>
<path d="M0 0 C0.99 0 1.98 0 3 0 C3.66 4.29 4.32 8.58 5 13 C3 12 3 12 2.1484375 10.0390625 C1.89320312 9.24242187 1.63796875 8.44578125 1.375 7.625 C1.11460938 6.83351563 0.85421875 6.04203125 0.5859375 5.2265625 C0 3 0 3 0 0 Z " fill="#22D5F6" transform="translate(1,45)"/>
<path d="M0 0 C-3.3 2.64 -6.6 5.28 -10 8 C-10 5 -10 5 -8 2 C-3.56097561 -1.18699187 -3.56097561 -1.18699187 0 0 Z " fill="#E6454E" transform="translate(32,18)"/>
<path d="M0 0 C0.66 0 1.32 0 2 0 C0.99667352 5.94074887 -0.30912706 10.20186518 -4 15 C-4 11.12375078 -2.52755573 8.5439293 -1 5 C-0.30859478 2.22111387 -0.30859478 2.22111387 0 0 Z " fill="#9A6CAA" transform="translate(74,38)"/>
<path d="M0 0 C2.97 0.495 2.97 0.495 6 1 C5.67 1.66 5.34 2.32 5 3 C2.27734375 3.4140625 2.27734375 3.4140625 -1.0625 3.625 C-2.16722656 3.69976562 -3.27195313 3.77453125 -4.41015625 3.8515625 C-5.26480469 3.90054687 -6.11945312 3.94953125 -7 4 C-5 2 -5 2 -2.375 1.875 C-1.59125 1.91625 -0.8075 1.9575 0 2 C0 1.34 0 0.68 0 0 Z " fill="#AF6999" transform="translate(46,1)"/>
<path d="M0 0 C0.99 0 1.98 0 3 0 C3 3.3 3 6.6 3 10 C1.50596946 7.01193893 0.20689255 4.10343799 -1 1 C-0.67 0.67 -0.34 0.34 0 0 Z " fill="#4DABEA" transform="translate(2,28)"/>
<path d="M0 0 C2.74277578 3.19990508 4.6302836 6.00499382 6 10 C2.5442399 8.84807997 1.80171463 8.08865366 0 5 C-0.1875 2.25 -0.1875 2.25 0 0 Z " fill="#B25D7F" transform="translate(69,15)"/>
<path d="M0 0 C0.99 0.33 1.98 0.66 3 1 C1.68 3.64 0.36 6.28 -1 9 C-1.33 9 -1.66 9 -2 9 C-1.125 1.125 -1.125 1.125 0 0 Z " fill="#C57181" transform="translate(14,25)"/>
<path d="M0 0 C0.598125 0.20625 1.19625 0.4125 1.8125 0.625 C-1.1575 3.1 -1.1575 3.1 -4.1875 5.625 C-4.5175 4.305 -4.8475 2.985 -5.1875 1.625 C-2.1875 -0.375 -2.1875 -0.375 0 0 Z " fill="#8278BF" transform="translate(28.1875,2.375)"/>
<path d="M0 0 C1 2 1 2 0.3125 4.4375 C-1.10829685 7.21143671 -2.39746148 8.35172561 -5 10 C-4.34 8.02 -3.68 6.04 -3 4 C-2.34 4 -1.68 4 -1 4 C-0.67 2.68 -0.34 1.36 0 0 Z " fill="#D24B64" transform="translate(64,46)"/>
<path d="M0 0 C0.66 0.33 1.32 0.66 2 1 C2 3.31 2 5.62 2 8 C1.34 8 0.68 8 0 8 C-0.38063221 5.6739143 -0.71269945 3.33944736 -1 1 C-0.67 0.67 -0.34 0.34 0 0 Z " fill="#53D2FA" transform="translate(1,37)"/>
<path d="M0 0 C3.125 -0.1875 3.125 -0.1875 6 0 C6 0.66 6 1.32 6 2 C3.36 2.33 0.72 2.66 -2 3 C-1.34 2.01 -0.68 1.02 0 0 Z " fill="#AF8095" transform="translate(43,71)"/>
<path d="M0 0 C2.50298434 2.93828597 3.46930939 5.17902761 4 9 C1.4375 6.75 1.4375 6.75 -1 4 C-0.8125 1.6875 -0.8125 1.6875 0 0 Z " fill="#4CC7DC" transform="translate(6,55)"/>
<path d="M0 0 C0.99 0.33 1.98 0.66 3 1 C2.67 2.98 2.34 4.96 2 7 C1.01 6.67 0.02 6.34 -1 6 C-0.67 4.02 -0.34 2.04 0 0 Z " fill="#EC7C6B" transform="translate(14,31)"/>
</svg>
